<svg width="24" height="24" viewBox="0 0 24 24" fill="none" xmlns="http://www.w3.org/2000/svg">
<path fill-rule="evenodd" clip-rule="evenodd" d="M14.8518 3.08315L17.5943 1.87176H17.5774C19.4282 1.04735 21.75 1.56892 21.75 3.68885V15.1802C21.75 17.2833 19.4282 17.8217 17.5774 16.9973L14.835 15.7859C12.7151 14.8269 10.3091 14.339 7.85267 14.339H5.4972C3.71376 14.339 2.25 12.892 2.25 11.0918V7.77728C2.25 5.99385 3.71376 4.53009 5.51402 4.53009H6.79271H7.06191H7.8695C10.3259 4.53009 12.7319 4.02534 14.8518 3.08315ZM9.51833 15.6681C10.3259 15.6681 10.511 16.0214 10.6288 16.3579H10.6456L11.857 20.1099C12.1935 21.1362 11.6214 22.2466 10.5951 22.5831C9.5688 22.9196 8.45837 22.3476 8.12187 21.3213L6.50668 16.3411C6.38891 16.0046 6.64128 15.6681 6.9946 15.6681H9.51833Z" fill="#0A7CFF"/>
</svg>
